<svg width="19" height="19" viewBox="0 0 19 19" fill="none" xmlns="http://www.w3.org/2000/svg">
<g clip-path="url(#clip0_1_547)">
<path d="M7.32287 0H1.38537C0.621437 0 0 0.621437 0 1.38537V4.94787C0 5.71194 0.621437 6.33338 1.38537 6.33338H7.32287C8.08694 6.33338 8.70838 5.71194 8.70838 4.94787V1.38537C8.70838 0.621437 8.08694 0 7.32287 0Z" fill="#5361DC"/>
<path d="M7.32287 7.91663H1.38537C0.621437 7.91663 0 8.53806 0 9.30214V17.6146C0 18.3786 0.621437 19 1.38537 19H7.32287C8.08694 19 8.70838 18.3786 8.70838 17.6146V9.30214C8.70838 8.53806 8.08694 7.91663 7.32287 7.91663Z" fill="#5361DC"/>
<path d="M17.6145 12.6666H11.677C10.9129 12.6666 10.2915 13.2881 10.2915 14.0521V17.6146C10.2915 18.3786 10.9129 19 11.677 19H17.6145C18.3784 19 18.9999 18.3786 18.9999 17.6146V14.0521C18.9999 13.2881 18.3784 12.6666 17.6145 12.6666Z" fill="#5361DC"/>
<path d="M17.6145 0H11.677C10.9129 0 10.2915 0.621437 10.2915 1.38537V9.69787C10.2915 10.4619 10.9129 11.0834 11.677 11.0834H17.6145C18.3784 11.0834 18.9999 10.4619 18.9999 9.69787V1.38537C18.9999 0.621437 18.3784 0 17.6145 0V0Z" fill="#5361DC"/>
</g>
<defs>
<clipPath id="clip0_1_547">
<rect width="19" height="19" fill="white"/>
</clipPath>
</defs>
</svg>
